<?xml version="1.0" standalone="no"?>
<!DOCTYPE svg PUBLIC "-//W3C//DTD SVG 20010904//EN"
 "http://www.w3.org/TR/2001/REC-SVG-20010904/DTD/svg10.dtd">
<svg version="1.0" xmlns="http://www.w3.org/2000/svg"
 width="1280.000000pt" height="1061.000000pt" viewBox="0 0 1280.000000 1061.000000"
 preserveAspectRatio="xMidYMid meet">
<metadata>
Created by potrace 1.15, written by Peter Selinger 2001-2017
</metadata>
<g transform="translate(0.000000,1061.000000) scale(0.100000,-0.100000)"
fill="#000000" stroke="none">
<path d="M1860 10060 l0 -440 -345 0 -345 0 0 -545 0 -545 225 0 225 0 0 -800
0 -800 -345 0 -345 0 0 -245 0 -245 345 0 345 0 0 -2720 0 -2720 -810 0 -810
0 0 -500 0 -500 6400 0 6400 0 0 500 0 500 -232 2 -231 3 -97 310 c-53 171
-113 353 -134 405 -92 228 -220 445 -386 651 -107 132 -454 479 -504 503 -55
26 -128 30 -245 12 -58 -9 -127 -16 -155 -16 -85 0 -99 15 -216 221 -41 72
-221 251 -357 353 -48 37 -135 90 -192 118 -99 49 -108 52 -180 51 -42 -1
-118 -11 -168 -22 -51 -12 -116 -21 -145 -21 l-53 0 -90 94 c-107 110 -151
146 -235 185 -86 41 -180 56 -261 41 -133 -24 -212 -88 -394 -315 -157 -198
-238 -264 -323 -265 -48 0 -83 17 -222 111 -156 106 -323 180 -420 186 -135
10 -230 -49 -494 -305 -103 -101 -193 -181 -199 -179 -6 2 -474 748 -1039
1658 l-1027 1654 179 3 180 2 0 245 0 245 -390 0 -390 0 0 800 0 800 225 0
225 0 0 545 0 545 -1375 0 -1375 0 0 440 0 440 -110 0 -110 0 0 -440z m2300
-2187 l0 -658 -40 70 c-163 278 -434 495 -740 593 -156 50 -257 65 -425 65
-436 -1 -802 -187 -1087 -553 l-27 -35 -1 588 0 587 1160 0 1160 0 0 -657z
m-1020 -164 c95 -14 223 -55 313 -100 269 -133 453 -336 566 -626 l21 -53
-394 0 -394 0 -14 23 c-22 33 -78 86 -118 112 -101 64 -238 72 -344 20 -54
-27 -166 -126 -166 -146 0 -5 -156 -9 -361 -9 l-361 0 6 28 c12 52 115 247
166 315 112 147 238 251 405 333 217 106 435 139 675 103z m-454 -1302 c81
-68 155 -97 244 -97 90 0 167 31 243 97 l37 33 342 0 c188 0 338 -3 334 -7 -4
-5 -328 -196 -719 -425 l-712 -416 -45 25 c-137 78 -276 202 -363 325 -88 123
-177 333 -194 455 l-6 43 400 0 399 0 40 -33z m1916 -110 l88 -142 0 -749 c0
-416 -4 -746 -9 -740 -4 5 -73 113 -152 239 l-144 230 -3 640 c-1 352 0 645 2
652 4 9 26 13 68 13 l63 0 87 -143z m-572 -49 c0 -24 -78 -189 -123 -261 l-23
-38 -52 80 -51 81 117 69 c104 63 132 77 132 69z m-366 -368 c36 -58 62 -108
60 -111 -2 -4 -38 -33 -79 -64 -230 -173 -530 -257 -800 -225 -96 11 -122 18
-100 26 6 3 197 114 425 248 228 134 418 240 423 237 4 -4 36 -54 71 -111z
m496 -142 l0 -233 -38 60 c-21 33 -55 88 -76 122 l-38 61 39 54 c22 29 55 79
74 111 18 31 35 57 36 57 2 0 3 -105 3 -232z m-2258 27 c57 -76 195 -208 271
-259 31 -22 54 -43 50 -47 -5 -4 -92 -57 -195 -117 l-188 -111 0 307 c0 168 4
302 8 297 5 -6 29 -37 54 -70z m3312 -451 c157 -253 288 -467 290 -475 4 -9
-86 -81 -282 -223 -158 -115 -293 -211 -300 -214 -9 -3 -12 149 -12 694 0 407
4 694 9 689 5 -6 137 -217 295 -471z m-1199 3 c81 -131 145 -240 143 -243 -3
-2 -487 -3 -1077 -2 l-1071 3 222 130 c142 83 232 129 248 128 14 0 63 -13
110 -28 390 -121 844 -36 1190 224 48 36 68 46 76 37 6 -6 78 -118 159 -249z
m-12 -490 c-20 -17 -2020 -1579 -2150 -1680 -10 -7 -13 163 -13 847 l0 856
1096 0 1096 0 -29 -23z m400 -131 c3 -8 335 -545 738 -1193 402 -648 732
-1183 733 -1188 1 -6 -33 -39 -74 -74 -186 -158 -320 -305 -506 -551 -140
-186 -203 -282 -332 -508 l-105 -182 -238 0 -239 0 0 1855 c0 1082 4 1855 9
1855 5 0 11 -7 14 -14z m-243 -816 l0 -780 -1000 -2 c-550 -2 -999 0 -998 4 4
9 1981 1556 1991 1557 4 1 7 -350 7 -779z m1428 -321 l-3 -351 -299 482 c-233
376 -296 484 -285 491 8 4 142 102 299 217 l285 210 3 -349 c1 -192 1 -507 0
-700z m531 297 c278 -447 291 -470 274 -486 -26 -24 -570 -420 -577 -420 -3 0
-6 314 -6 697 0 412 4 693 9 688 5 -6 140 -221 300 -479z m341 -893 l-1 -178
-200 -163 c-109 -90 -203 -161 -207 -158 -13 8 -165 257 -160 262 7 6 562 413
566 414 1 0 2 -80 2 -177z m-2456 -102 c-5 -4 -391 -307 -859 -672 -467 -364
-952 -743 -1077 -841 l-228 -178 0 850 0 850 1087 0 c603 0 1083 -4 1077 -9z
m153 -1858 c-2 -2 -491 -2 -1086 -1 l-1082 3 1083 846 1083 847 3 -846 c1
-465 1 -847 -1 -849z"/>
</g>
</svg>
